<svg id="Group_4414" data-name="Group 4414" xmlns="http://www.w3.org/2000/svg" width="113.557" height="48" viewBox="0 0 113.557 48">
  <g id="Group_16" data-name="Group 16">
    <path id="Path_4" data-name="Path 4" d="M1187.524,3140.41a1.058,1.058,0,1,1-.454-2.067,16.785,16.785,0,0,1,19.65,11.417,1.056,1.056,0,1,1-2.017.623,14.661,14.661,0,0,0-17.178-9.974" transform="translate(-1154.86 -3133.832)" fill="#ff8830" fill-rule="evenodd"/>
    <path id="Path_5" data-name="Path 5" d="M1026.317,3242.806q.461.251.9.547a10.791,10.791,0,0,1,3.13,3.293,10.646,10.646,0,0,1,.979,2.075,1.059,1.059,0,0,1-2,.692,9.782,9.782,0,0,0-.741-1.565,8.309,8.309,0,0,0-2.746-2.872,8.482,8.482,0,0,0-1.484-.76,8.707,8.707,0,0,0-4.79-.412,1.059,1.059,0,1,1-.419-2.075,10.546,10.546,0,0,1,7.177,1.079m-11.7,16.136v-7.466a6.418,6.418,0,0,1,6.623-6.185,6.835,6.835,0,0,1,4.832,11.667,6.152,6.152,0,0,1-4.261,1.975Zm0,17.536V3264.4h5.712c3.878,0,6.79-.8,9.59-3.6a12.274,12.274,0,1,0-17.358-17.358,11.978,11.978,0,0,0-3.595,8.678c.008,7.883.016,16.423.024,24.352C1008.995,3279.7,1014.617,3279.956,1014.617,3276.478Z" transform="translate(-985.434 -3230.992)" fill="#ff8830" fill-rule="evenodd"/>
    <path id="Path_6" data-name="Path 6" d="M496.719,3072.665l-2.507.021c-1.829.016-2.367-.447-2.367-2.723V3059.7h4.278a2.814,2.814,0,1,0,0-5.626h-4.278v-6.257a2.814,2.814,0,1,0-5.627,0v6.257h-6.166a2.814,2.814,0,1,0,0,5.626h6.166v10.773c0,3.81,1.629,7.644,7.484,7.644h3.1c3.078,0,3.129-5.479-.081-5.452" transform="translate(-477.175 -3044.939)" fill="#ff8830" fill-rule="evenodd"/>
  </g>
  <g id="Group_17" data-name="Group 17" transform="translate(52.458 12.48)">
    <path id="Path_7" data-name="Path 7" d="M1656.6,3475.192c1.139,0,1.916-.528,1.916-1.361a1.25,1.25,0,1,1,2.5,0c0,2.555-1.694,3.749-4.416,3.749h-1.25c-3.472,0-5.221-2.333-5.221-5.471v-4.471c0-3.055,1.666-5.055,5.138-5.055h1.333c2.722,0,4.416,1.194,4.416,3.749a1.25,1.25,0,1,1-2.5,0c0-.833-.778-1.361-1.916-1.361h-1.333a2.358,2.358,0,0,0-2.638,2.666v4.471c0,1.805.861,3.083,2.722,3.083Z" transform="translate(-1650.132 -3456.473)" fill="#0050a2"/>
    <path id="Path_8" data-name="Path 8" d="M1971.444,3344.341a1.165,1.165,0,0,1-1.278,1.278,1.149,1.149,0,0,1-1.222-1.278v-18.552a1.165,1.165,0,0,1,1.278-1.278,1.15,1.15,0,0,1,1.222,1.278Z" transform="translate(-1954.836 -3324.511)" fill="#0050a2"/>
    <path id="Path_9" data-name="Path 9" d="M2115.886,3477.581c-3.472,0-5.11-2.278-5.11-5.333v-4.333c0-3.055,1.639-5.332,5.11-5.332h1.166c3.472,0,5.11,2.277,5.11,5.332v4.333c0,3.055-1.639,5.333-5.11,5.333Zm1.166-2.388c1.861,0,2.611-1.222,2.611-2.944v-4.333c0-1.721-.75-2.944-2.611-2.944h-1.166c-1.861,0-2.611,1.222-2.611,2.944v4.333c0,1.722.75,2.944,2.611,2.944Z" transform="translate(-2090.391 -3456.473)" fill="#0050a2"/>
    <path id="Path_10" data-name="Path 10" d="M2452.176,3472.248a2.347,2.347,0,0,0,2.639,2.666h3.333v-11.053a1.143,1.143,0,0,1,1.25-1.278,1.171,1.171,0,0,1,1.25,1.278v12.164a1.158,1.158,0,0,1-1.25,1.278h-4.583c-3.472,0-5.138-1.944-5.138-5.055v-8.387a1.157,1.157,0,0,1,1.25-1.278,1.143,1.143,0,0,1,1.25,1.278Z" transform="translate(-2414.295 -3456.473)" fill="#0050a2"/>
    <path id="Path_11" data-name="Path 11" d="M2788.062,3345.341c-3.472,0-5.138-1.944-5.138-5.055v-3.944c0-3.111,1.75-5.443,5.221-5.443h3.249v-5.11a1.25,1.25,0,1,1,2.5,0v18.274a1.193,1.193,0,0,1-1.277,1.278Zm.083-12.053c-1.86,0-2.722,1.278-2.722,3.055v3.944a2.347,2.347,0,0,0,2.638,2.666h3.333v-9.665Z" transform="translate(-2732.796 -3324.511)" fill="#0050a2"/>
  </g>
</svg>
